<?xml version="1.0" encoding="UTF-8" standalone="no"?>
<svg
   height="396px"
   version="1.1"
   viewBox="4401.716174470299 8632.63272851465 15149.16521844266 9994.069954611496"
   width="600px"
   id="svg1415"
   sodipodi:docname="test_out.svg"
   inkscape:version="1.1.1 (3bf5ae0d25, 2021-09-20)"
   xmlns:inkscape="http://www.inkscape.org/namespaces/inkscape"
   xmlns:sodipodi="http://sodipodi.sourceforge.net/DTD/sodipodi-0.dtd"
   xmlns:xlink="http://www.w3.org/1999/xlink"
   xmlns="http://www.w3.org/2000/svg"
   xmlns:svg="http://www.w3.org/2000/svg">
  <sodipodi:namedview
     id="namedview1417"
     pagecolor="#ffffff"
     bordercolor="#666666"
     borderopacity="1.0"
     inkscape:pageshadow="2"
     inkscape:pageopacity="0.0"
     inkscape:pagecheckerboard="0"
     showgrid="false"
     inkscape:zoom="3.2281265"
     inkscape:cx="283.91081"
     inkscape:cy="210.49361"
     inkscape:window-width="2560"
     inkscape:window-height="1377"
     inkscape:window-x="-8"
     inkscape:window-y="-8"
     inkscape:window-maximized="1"
     inkscape:current-layer="layer2" />
  <defs
     id="defs1407" />
  <g
     inkscape:groupmode="layer"
     id="layer1"
     inkscape:label="Base"
     style="display:none">
    <image
       width="20056.93"
       height="20056.93"
       preserveAspectRatio="none"
       xlink:href="floormap-24-988480000.png"
       id="image12092"
       x="-91.873001"
       y="90.490555" />
  </g>
  <g
     inkscape:groupmode="layer"
     id="layer2"
     inkscape:label="Path">
    <path
       d="m 9879.086,10340.094 c 243.477,-16.905 452.97,-30.787 696.994,-35.196 375.318,-6.781 750.368,-24.602 1125.403,-40.677 547.052,-23.449 1093.606,-57.662 1640.648,-81.355 488.004,-21.136 976.841,-84.232 1464.381,-54.236 283.307,17.43 564.344,70.67 840.662,135.591 404.492,94.53 745.623,277.208 922.018,555.922 454.063,690.053 800.735,1248.419 867.781,2020.302 27.477,285.172 72.578,568.601 94.913,854.222 23.28,297.699 22.221,596.862 40.677,894.899 14.291,230.77 35.385,579.334 7.307,808.835 -24.299,198.615 -96.151,357.454 -182.004,538.196 -94.147,198.203 -241.125,357.085 -399.466,508.993 -267.401,256.537 -529.031,388.48 -876.658,516.815 -301.874,111.444 -627.379,180.827 -949.135,176.268 -365.193,-5.174 -692.261,-68.306 -1047.703,-152.291 -299.781,-70.833 -632.348,-194.343 -918.363,-308.718 -249.864,-99.919 -488.252,-233.824 -705.072,-393.213 -195.768,-143.913 -343.976,-302.992 -458.412,-517.329 -88.539,-165.833 -147.106,-352.308 -149.663,-540.279 -3.043,-223.693 47.089,-477.382 141.842,-680.038 103.017,-220.331 183.386,-393.502 337.065,-582.026 134.794,-165.358 290.058,-353.55 408.649,-530.888 126.249,-188.788 273.999,-331.739 412.032,-512.091 170.974,-223.393 341.776,-465.493 583.04,-610.158 173.048,-103.762 382.199,-143.337 583.04,-162.709 225.659,-21.766 464.697,-22.688 677.954,54.236 192.263,69.351 360.049,205.181 501.686,352.536 115.547,120.212 224.064,260.388 271.181,420.331 45.978,156.078 39.973,330.404 0,488.127 -30.307,119.583 -106.901,223.404 -176.268,325.418 -102.825,151.218 -198.643,321.554 -352.536,420.331 -157.792,101.28 -354.979,155.707 -542.363,149.15 -258.572,-9.048 -508.91,-126.904 -732.19,-257.622 -171.353,-100.317 -296.083,-264.709 -447.449,-393.214 -222.787,-189.139 -436.687,-391.003 -677.954,-555.922 -205.491,-140.465 -431.377,-248.644 -650.836,-366.095 -263.757,-141.158 -513.588,-320.345 -799.986,-406.772 -187.313,-56.526 -387.864,-54.096 -583.04,-67.795 -184.908,-12.978 -370.581,-16.373 -555.922,-13.56 -330.3944,5.015 -671.0051,-32.639 -989.8126,54.237 -142.3748,38.797 -271.3797,120.125 -393.2131,203.386 -124.2664,84.924 -261.1428,169.474 -338.977,298.3 -79.3631,131.356 -107.0018,293.986 -108.4726,447.449 -1.5974,166.67 48.6487,332.555 108.4726,488.127 55.9366,145.463 176.268,366.095 230.5044,406.772 54.2362,40.677 488.1266,610.159 542.3631,637.277 54.2361,27.118 220.2971,336.501 277.6054,516.849 48.0823,151.314 42.2971,266.787 -1.9629,419.262 -35.5029,122.307 -121.6632,282.6 -226.0434,355.568 -201.7067,141.005 -452.9628,211.034 -699.0066,205.526 -261.4916,-5.853 -570.5617,-92.515 -817.1123,-179.836 -175.4531,-62.14 -425.9259,-149.143 -571.0855,-265.65 -207.2444,-166.337 -413.5083,-405.765 -556.4569,-629.783 -164.4111,-257.652 -301.8415,-569.482 -404.8094,-857.255 -117.1257,-327.341 -111.8737,-717.011 -129.8839,-1064.208 -14.9737,-288.66 84.1403,-605.763 149.1498,-887.406 55.0142,-238.34 205.5163,-455.533 308.4676,-677.419 102.8809,-221.735 242.1753,-429.441 406.7723,-610.158 144.9694,-159.167 315.8336,-298.102 501.6857,-406.772 201.4184,-117.772 424.2499,-201.959 650.8358,-257.623 335.4211,-82.401 687.6523,-66.522 1030.4896,-108.473 194.7769,-23.834 618.2369,-46.158 618.2369,-46.158 v 0"
       fill="none"
       stroke="#0000ff"
       stroke-width="12.6138"
       id="path1409"
       sodipodi:nodetypes="csssscccsssssssssssssssssssssssssssssssssssssssssssssssssssssssc"
       transform="translate(-2.2791703e-5,1.1678406e-4)" />
    <path
       d="m 9798.8674,9656.4591 180.1133,-7.5341 h 166.6993 l 153.171,3.1968 139.592,2.9022 125.895,-0.024 218.399,-5.1338 220.12,-7.1657 221.851,-8.6248 223.593,-9.4964 225.346,-9.7661 324.079,-15.0021 326.028,-16.6469 328.024,-17.2896 330.068,-16.9111 332.159,-15.4928 277.817,-15.8084 292.226,-20.1734 306.517,-18.1055 320.835,-8.6599 335.027,9.1291 200.251,17.1672 195.095,25.3756 189.89,31.901 184.688,36.8458 179.494,40.3055 108.038,23.2293 139.768,29.6093 168.296,43.5995 193.443,70.2435 210.018,113.437 159.305,125.6087 119.68,125.827 89.419,114.365 67.603,96.53 50.768,74.192 118.229,184.206 97.66,173.851 83.688,159.472 74.837,142.089 69.481,122.403 49.905,73.589 79.905,105.635 103.288,139.753 114.497,182.393 104.628,235.811 57.569,236.62 19.908,202.184 3.447,163.685 0.661,124.691 4.091,83.63 16.972,158.606 19.973,165.709 21.204,172.979 20.417,180.45 17.365,188.143 12.522,196.144 8.089,188.746 6.103,181.206 6.297,173.543 8.401,165.759 9.722,95.493 18.209,128.859 20.965,161.638 12.979,195.468 -11.207,229.165 -32.269,183.637 -45.865,167.949 -54.045,152.897 -57.804,138.96 -57.902,125.993 -62.446,129.292 -74.683,143.311 -91.787,153.861 -115.21,160.066 -145.549,159.553 -227.373,193.414 -237.704,161.571 -242.195,134.668 -242.134,112.497 -238.167,94.497 -221.572,74.225 -229.831,60.999 -237.451,45.669 -244.335,27.96 -250.267,7.576 -301.029,-24.479 -269.809,-51.621 -240.312,-62.305 -213.228,-60.38 -187.049,-49.074 -166.735,-37.048 -183.769,-39.113 -199.209,-45.9 -212.909,-58.723 -224.158,-78.769 -179.81,-77.464 -175.112,-86.466 -170.082,-95.017 -164.715,-103.157 -158.999,-110.924 -118.647,-86.468 -140.132,-106.694 -154.166,-133.862 -158.341,-171.733 -145.917,-220.509 -88.371,-208.583 -48.581,-193.96 -23.024,-173.1 -8.829,-150.643 -2.655,-126.932 -0.402,-152.576 6.675,-172.932 21.293,-191.971 45.877,-209.333 82.592,-221.729 147.882,-242.225 152.314,-172.819 129.625,-122.85 93.374,-86.823 49.934,-53.034 71.549,-89.647 70.077,-91.514 m 709.659,-1065.669 239.02,-288.522 177.024,-165.235 217.454,-154.628 185.329,-94.588 181.371,-66.166 173.369,-44.541 163.23,-28.883 151.599,-18.063 167.548,-12.339 180.946,-3.03 193.594,11.526 205.081,32.526 213.742,61.111 188.972,82.468 167.271,98.014 147.601,107.406 130.425,112.206 115.488,113.444 91.646,100.433 93.166,116.014 90.741,134.414 82.956,156.06 67.559,180.172 39.828,176.585 17.408,172.302 -1.4,166.801 -17.495,160.885 -31.771,154.916 -51.991,156.9 -60.88,128.287 -60.232,102.842 -53.384,81.227 -42.352,61.969 -56.657,85.262 -74.566,109.704 -98.371,128.739 -132.219,140.273 -177.126,137.874 -169.911,94.521 -177.53,72.165 -183.994,50.645 -189.772,28.846 -194.992,5.56 -253.507,-28.917 -229.408,-59.331 -205.783,-78.24 -184.34,-88.323 -164.819,-91.472 -170.307,-116.378 -131.906,-113.344 -102.008,-98.874 -78.397,-77.619 -57.107,-52.427 m -1076.803,-771.691 -138.02,-72.75 -176.75,-99.236 -154.829,-90.343 -135.278,-75.324 -116.382,-56.333 -97.828,-36.342 -45.739,-10.841 -67.264,-9.653 -88.932,-7.458 -109.564,-6.123 -129.262,-7.598 -98.053,-5.884 -99.136,-4.034 -100.166,-2.295 -101.139,-0.668 -102.054,0.841 -219.535,-0.783 -194.2745,-2.921 -167.4179,2.258 -138.4097,11.471 -109.1474,21.42 -16.1123,5.528 -28.9531,13.106 -40.7558,22.262 -51.1186,31.65 -60.4172,40.359 -75.072,50.974 -53.3463,37.771 -29.3503,23.44 -5.1324,4.65 13.5158,-19.055 1.405,-2.362 -3.9708,11.924 -5.6586,25.768 -4.6077,37.116 -2.0114,45.1 1.3919,25.641 6.1205,38.885 12.4747,51.244 19.3521,61.921 25.8529,70.91 23.4973,54.664 34.9097,70.621 34.4206,61.666 14.936,23.703 c 35.0555,67.4 183.584,209.935 220.1351,254.709 l 143.0495,176.571 c 129.0135,148.03 106.5066,133.997 160.4967,170.78 l 124.5969,112.037 133.1633,142.301 136.504,183.329 126.04,264.007 46.172,229.045 2.001,201.184 -21.745,169.329 -31.162,140.135 -31.187,112.923 -24.112,82.523 -39.135,116.465 -65.749,147.056 -113.506,171.903 -185.5842,172.566 -295.922,148.144 -271.5745,60.22 -228.4056,13.387 -184.9571,-4.376 -138.2906,-5.361 -194.0556,-9.845 -195.383,-21.358 -195.9345,-33.654 -195.6244,-46.842 -194.3264,-61.022 -144.5843,-56.716 -140.5328,-66.203 -136.0719,-75.493 -131.1394,-84.685 -125.6553,-93.873 -156.1181,-134.858 -144.918,-143.986 -133.8668,-151.874 -122.9311,-158.666 -112.0564,-164.482 -120.0064,-208.394 -97.5354,-204.491 -80.8936,-197.049 -69.4337,-186.937 -62.2836,-174.463 -69.2736,-186.942 -77.3358,-210.391 -76.2178,-235.378 -63.4121,-263.176 -35.6256,-292.793 5.0507,-262.156 32.1563,-233.627 44.3522,-205.542 45.3071,-179.254 38.0638,-153.506 31.5467,-139.827 35.9156,-154.819 44.3172,-168.312 57.8568,-180.117 77.4725,-189.381 84.3336,-167.705 94.2689,-161.662 103.6482,-155.251 112.5496,-148.445 121.0445,-141.207 117.3223,-121.225 124.4302,-113.98 131.1604,-106.419 137.5609,-98.481 143.6701,-90.099 160.9024,-87.041 163.7263,-75.553 165.6044,-64.8341 166.6564,-54.8302 166.969,-45.4771 265.0888,-50.971 244.8409,-27.2454 222.6602,-15.2963 199.328,-12.546 174.6939,-16.3706 96.7671,-13.565 109.8211,-17.6706 123.0567,-19.7582 136.6547,-19.0131 v 0 0 0 0 l 150.6675,-14.5984 v 0"
       fill="none"
       stroke="#ff0000"
       stroke-width="12.6138"
       id="path1411"
       sodipodi:nodetypes="cccccccccccccccccccccccccccccccccccccccccccccccccccccccccccccccccccccccccccccccccccccccccccccccccccccccccccccccccccccccccccccccccccccccccccccccccccccccccccccccccccccccccccccccccccccccccccccccccccccccccccccccccccccccccccccccccccccccccccccccccccccccccccccccccccccccccccccccccccccccccccccccccccccccccccccccccccccc"
       transform="translate(-2.2791703e-5,1.1678406e-4)" />
    <path
       d="m 9888.9116,10953.337 112.3204,-4.602 126.136,0.06 139.885,2.942 153.505,3.166 167.064,-0.116 231.922,-5.449 230.097,-7.488 228.286,-8.873 226.488,-9.619 224.704,-9.738 332.28,-15.38 330.186,-16.858 328.14,-17.296 326.142,-16.711 324.19,-15.123 307.954,-17.464 293.74,-20.275 279.44,-16.554 264.908,-7.246 250.298,6.685 139.134,11.957 142.964,18.622 c 0,0 97.871,15.691 146.61,24.651 50.152,9.22 100.134,19.367 150.017,29.947 51.194,10.858 102.075,23.144 153.181,34.41 47.956,10.572 83.525,18.117 131.549,28.377 38.151,8.151 127.372,38.043 184.335,71.093 82.475,47.853 159.552,89.918 221.821,180.623 61.726,90.03 149.647,239.516 223.616,379.926 28.304,53.832 65.636,108.068 94.856,161.409 32.322,59.004 93.058,117.445 127.172,175.431 121.056,205.765 234.273,310.492 276.545,557.771 6.945,40.621 17.224,80.811 20.833,121.863 4.241,48.24 -0.56,96.871 0.883,145.276 1.83,61.403 4.948,122.792 9.856,184.026 4.908,61.233 12.646,122.209 19.584,183.245 6.662,58.607 21.165,175.683 21.165,175.683 l 20.639,168.332 18.252,161.158 14.255,154.139 10.274,161.405 7.235,169.257 5.958,177.002 6.71,184.621 9.765,192.115 17.925,181.508 20.847,148.158 15.113,115.179 5.738,80.94 -1.819,46.618 -9.393,52.649 -17.654,64.176 -26.608,74.982 -35.261,84.586 -42.851,93.135 -52.785,109.393 -48.411,93.122 -44.198,74.412 -38.696,54.145 -31.309,34.689 -111.486,94.598 -131.975,89.513 -150.592,83.594 -166.052,77.051 -177.71,70.441 -145.91,48.903 -146.365,38.879 -144.832,27.899 -141.405,16.236 -136.302,4.19 -133.997,-11.314 -160.058,-30.956 -186.277,-48.477 -211.959,-60.026 -238.616,-62.378 -194.72,-43.336 -179.051,-38.098 -161.862,-37.218 -143.302,-39.387 -124.083,-43.416 -117.111,-50.46 -115.332,-56.954 -112.916,-63.085 -109.867,-68.809 -106.2,-74.09 -119.722,-87.256 c 0,0 -65.449,-48.109 -97.007,-73.652 -23.792,-19.257 -47.459,-38.771 -69.547,-59.96 -13.984,-13.415 -27.592,-27.332 -39.757,-42.417 -5.294,-6.565 -7.397,-25.558 -14.374,-20.821 -0.558,0.379 0.505,1.951 1.123,1.682 8.014,-3.484 -4.455,-16.919 -6.015,-25.517 -3.245,-17.892 -5.26,-36.002 -6.929,-54.109 -2.435,-26.417 -3.476,-52.951 -4.494,-79.461 -1.295,-33.722 -1.654,-67.476 -2.051,-101.221 -0.464,-39.499 -1.055,-79.009 -0.386,-118.505 5.144,-121.641 16.821,-198.718 70.677,-310.321 13.556,-14.986 46.083,-52.029 60.227,-66.461 27.382,-27.939 25.598,-26.344 54.133,-53.104 41.22,-38.656 66.481,-63.883 106.333,-103.948 51.919,-52.197 92.098,-90.767 140.066,-146.617 30.697,-35.741 92.083,-110.47 92.083,-110.47 l 87.587,-100.093 m 764.65,-1141.538 81.272,-91.833 69.671,-65.509 56.282,-40.496 30.283,-15.225 47.307,-17.06 64.11,-16.321 78.788,-13.836 90.694,-10.735 105.827,-7.865 95.092,-1.698 81.346,4.696 65.004,10.118 47.728,13.427 35.842,15.829 45.634,26.917 53.234,38.884 58.179,50.167 60.726,59.737 44.454,48.609 34.338,42.593 22.952,33.737 11.703,21.618 2.847,7.012 3.158,14.531 2.356,24.226 -0.33,31.796 -3.998,36.433 -7.756,37.779 5.37,-16.96 -2.822,5.427 -15.412,25.986 -29.066,44.053 -41.767,61.105 -66.092,99.337 -51.069,75.367 -36.395,48.098 -17.928,19.626 5.351,-3.618 -28.107,15.544 -34.675,14.054 -37.674,10.372 -36.637,5.612 -31.434,0.981 -54.502,-6.52 -72.841,-19.121 -88.901,-34.02 -100.969,-48.532 -109.31,-60.768 -25.299,-17.781 -48.354,-41.975 -69.939,-68.008 -92.269,-91.23 -119.312,-108.792 -126.618,-109.215 m -1053.901,-752.549 -135.794,-71.199 -126.444,-66.63 -137.224,-77.188 -157.308,-91.779 -179.869,-99.941 -206.622,-99.518 -237.882,-87.54 -181.916,-44.042 -164.959,-24.14 -146.07,-12.451 -126.433,-7.112 -105.941,-6.172 -124.003,-7.444 -123.181,-5.017 -122.308,-2.805 -121.386,-0.804 -120.418,0.99 -178.878,-0.764 -205.9682,-3.057 -231.581,3.386 -256.2714,21.845 -278.1421,55.619 -151.6279,50.586 -132.9645,59.526 -115.9344,62.99 -100.9392,62.324 -87.6032,58.441 -75.9277,51.56 -96.8275,68.869 -113.1191,91.593 -122.754,123.063 -119.9405,163.735 -84.6358,166.848 -56.8857,163.691 -35.2769,157.094 -18.8606,149.111 -6.4427,140.608 8.4574,174.022 24.5562,159.487 34.9718,144.921 40.8068,131.124 42.9609,118.099 56.9935,133.85 63.9636,129.483 70.3083,125.534 83.1212,126.103 c 149.8316,139.443 140.862,163.891 256.167,301.379 l 146.7893,181.172 140.6049,168.007 c 70.9055,84.724 322.7603,273.297 347.3078,303.218 24.1109,29.389 45.3768,51.888 26.4189,50.53 0,0 -61.2908,-5.094 -91.9994,-6.591 -41.4228,-2.019 -82.9231,-1.903 -124.3741,-3.222 -54.7576,-1.743 -109.507,-3.781 -164.2389,-6.2 -40.0751,-1.771 -120.1887,-6.087 -120.1887,-6.087 l -118.387,-12.926 -115.2869,-19.782 -110.974,-26.546 -105.5745,-33.12 -63.8234,-25.043 -62.6802,-29.53 -60.5626,-33.596 -57.5327,-37.144 -53.6706,-40.079 -85.5907,-73.97 -82.3719,-81.873 -78.3295,-88.89 -73.4969,-94.88 -67.9284,-99.719 -62.6393,-109.089 -60.2916,-126.707 -58.8297,-143.541 -58.9004,-158.719 -61.3767,-171.936 -76.447,-206.496 -68.2237,-185.382 -53.4295,-164.351 -34.5719,-142.129 -14.9442,-119.706 1.9909,-83.138 15.4208,-109.627 29.5341,-135.91 40.6621,-160.633 45.7616,-185.051 33.2419,-147.271 30.7121,-132.573 30.5934,-116.546 31.7807,-99.377 33.3357,-81.921 47.685,-94.803 54.1614,-92.867 60.1274,-90.057 65.5045,-86.395 70.2215,-81.924 62.6813,-64.759 66.9557,-61.33 70.5609,-57.253 73.4488,-52.59 75.5808,-47.408 85.6563,-46.306 91.4155,-42.159 96.425,-37.729 100.5658,-33.071 103.7505,-28.246 141.0317,-26.82 166.8329,-18.359 192.0511,-13.106 215.9055,-13.642 238.5462,-22.589 136.5084,-19.052 122.8943,-19.75 109.629,-17.624 96.5318,-13.491 83.5502,-8.186 v 0 0 0 0 0"
       fill="none"
       stroke="#008000"
       stroke-width="12.6138"
       id="path1413"
       sodipodi:nodetypes="cccccccccccccccccccccccssssaccsssssssccccccccccccccccccccccccccccccccccccccccccccccccccsssssssssccssssccccccccccccccccccccccccccccccccccccccccccccccccccccccccccccccccccccccccccccccccccccccccccccccccccccccccccssssssccccccccccccccccccccccccccccccccccccccccccccccccccccccccccccccccc"
       transform="translate(-2.2791703e-5,1.1678406e-4)" />
  </g>
</svg>
